<?xml version="1.0"?>
<svg width="239" height="259" viewBox="0 0 239 259" fill="none" xmlns="http://www.w3.org/2000/svg">
<path d="M141.016 166.879V183.501H144.632C180.577 183.501 209.716 212.641 209.716 248.586V256.721H28.9263V248.586C28.9263 212.641 58.0655 183.501 94.0105 183.501H97.6263V166.879C82.0446 159.477 70.8443 144.349 68.9758 126.445C63.7105 125.701 59.6605 121.176 59.6605 115.705V103.05C59.6605 97.6751 63.5697 93.2133 68.7 92.3526V86.7789C68.7 58.8217 91.3638 36.1579 119.321 36.1579C147.278 36.1579 169.942 58.8217 169.942 86.7789V92.3526C175.072 93.2133 178.982 97.6751 178.982 103.05V115.705C178.982 121.176 174.932 125.701 169.666 126.445C167.798 144.349 156.597 159.477 141.016 166.879Z" fill="#D0C6AC"></path>
<mask id="mask0" mask-type="alpha" maskUnits="userSpaceOnUse" x="28" y="36" width="182" height="221">
<path d="M141.016 166.879V183.501H144.632C180.577 183.501 209.716 212.641 209.716 248.586V256.721H28.9263V248.586C28.9263 212.641 58.0655 183.501 94.0105 183.501H97.6263V166.879C82.0446 159.477 70.8443 144.349 68.9758 126.445C63.7105 125.701 59.6605 121.176 59.6605 115.705V103.05C59.6605 97.6751 63.5697 93.2133 68.7 92.3526V86.7789C68.7 58.8217 91.3638 36.1579 119.321 36.1579C147.278 36.1579 169.942 58.8217 169.942 86.7789V92.3526C175.072 93.2133 178.982 97.6751 178.982 103.05V115.705C178.982 121.176 174.932 125.701 169.666 126.445C167.798 144.349 156.597 159.477 141.016 166.879Z" fill="white"></path>
</mask>
<g mask="url(#mask0)">
<path d="M238.642 36.1579H0V256.721H238.642V36.1579Z" fill="#FFDBB4"></path>
</g>
<mask id="mask1" mask-type="alpha" maskUnits="userSpaceOnUse" x="28" y="36" width="182" height="221">
<path d="M141.016 166.879V183.501H144.632C180.577 183.501 209.716 212.641 209.716 248.586V256.721H28.9263V248.586C28.9263 212.641 58.0655 183.501 94.0105 183.501H97.6263V166.879C82.0446 159.477 70.8443 144.349 68.9758 126.445C63.7105 125.701 59.6605 121.176 59.6605 115.705V103.05C59.6605 97.6751 63.5697 93.2133 68.7 92.3526V86.7789C68.7 58.8217 91.3638 36.1579 119.321 36.1579C147.278 36.1579 169.942 58.8217 169.942 86.7789V92.3526C175.072 93.2133 178.982 97.6751 178.982 103.05V115.705C178.982 121.176 174.932 125.701 169.666 126.445C167.798 144.349 156.597 159.477 141.016 166.879Z" fill="white"></path>
</mask>
<g mask="url(#mask1)">
<path d="M169.942 107.57V128.361C169.942 156.318 147.278 178.982 119.321 178.982C91.3638 178.982 68.7 156.318 68.7 128.361V107.57V121.129C68.7 149.086 91.3638 171.75 119.321 171.75C147.278 171.75 169.942 149.086 169.942 121.129V107.57Z" fill="black" fill-opacity="0.1"></path>
</g>
<mask id="mask2" mask-type="alpha" maskUnits="userSpaceOnUse" x="23" y="181" width="193" height="78">
<path d="M151.612 181.469C187.276 184.224 215.357 214.036 215.357 250.406V259H23.2855V250.406C23.2855 213.705 51.8803 183.681 88.0067 181.4C87.7582 182.434 87.6293 183.494 87.6293 184.572C87.6293 195.976 102.033 205.22 119.801 205.22C137.569 205.22 151.973 195.976 151.973 184.572C151.973 183.518 151.85 182.481 151.612 181.469L151.612 181.469Z" fill="white"></path>
</mask>
<g mask="url(#mask2)">
<path d="M246.088 153.361H-7.44586V259H246.088V153.361Z" fill="#121212"></path>
</g>
<mask id="mask3" mask-type="alpha" maskUnits="userSpaceOnUse" x="28" y="183" width="182" height="74">
<path d="M149.715 183.744C183.284 186.337 209.716 214.398 209.716 248.632V256.721H28.9263V248.632C28.9263 214.086 55.8415 185.826 89.846 183.679C89.6121 184.653 89.4908 185.65 89.4908 186.665C89.4908 197.399 103.049 206.1 119.773 206.1C136.497 206.1 150.055 197.399 150.055 186.665C150.055 185.672 149.939 184.697 149.715 183.744L149.715 183.744Z" fill="white"></path>
</mask>
<g mask="url(#mask3)">
<path d="M128.615 227.73C128.346 230.241 123.469 231.594 121.681 229.943C120.856 229.182 120.842 227.617 120.66 226.597C120.317 224.669 120.067 222.748 119.982 220.791C119.929 219.594 119.615 218.635 120.925 218.457C121.724 218.349 122.546 218.88 123.199 219.3C125.411 220.722 128.921 224.849 128.615 227.73ZM117.406 222.439C117.663 224.994 118.599 229.435 116.56 231.574C114.738 233.486 110.992 231.59 110.429 229.339C109.73 226.546 112.486 223.209 114.176 221.321C114.695 220.741 115.842 219.14 116.74 219.676C117.085 219.882 117.366 222.037 117.406 222.439ZM118.708 232.411C119.292 231.034 124.956 235.139 122.281 237.092C121.845 237.411 118.521 238.417 117.884 237.944C116.541 236.946 118.273 233.456 118.708 232.411ZM135.886 225.559C135.485 211.57 117.572 207.625 108 215.595C104.34 218.643 102.249 222.375 102.153 227.146C102.071 231.189 102.712 235.001 105.799 237.78C107.138 238.985 108.022 239.723 108.732 241.369C109.477 243.093 109.816 245.288 111.211 246.642C111.98 247.388 113.1 247.99 114.163 247.509C116.117 246.624 115.492 243.914 116.084 242.403C117.925 246.895 122.603 248.327 123.452 242.628C124.383 244.272 126.819 246.426 128.603 244.626C129.337 243.885 129.448 242.683 129.573 241.709C129.794 239.981 129.409 239.301 130.797 238.116C134.449 234.998 136.016 230.277 135.886 225.559Z" fill="white"></path>
</g>
<path d="M96.7224 138.854C97.9969 147.553 107.626 154.575 119.321 154.575C131.044 154.575 140.696 147.509 141.92 138.068C142.011 137.707 141.717 136.496 139.955 136.496C121.887 136.496 108.238 136.496 98.6875 136.496C97.0688 136.496 96.605 137.617 96.7224 138.854Z" fill="black" fill-opacity="0.7"></path>
<mask id="mask4" mask-type="alpha" maskUnits="userSpaceOnUse" x="96" y="136" width="46" height="19">
<path d="M96.7224 138.854C97.9969 147.553 107.626 154.575 119.321 154.575C131.044 154.575 140.696 147.509 141.92 138.068C142.011 137.707 141.717 136.496 139.955 136.496C121.887 136.496 108.238 136.496 98.6875 136.496C97.0688 136.496 96.605 137.617 96.7224 138.854Z" fill="white"></path>
</mask>
<g mask="url(#mask4)">
<path d="M128.784 126.553H110.762C108 126.553 105.762 128.791 105.762 131.553V136.016C105.762 138.777 108 141.016 110.762 141.016H128.784C131.546 141.016 133.784 138.777 133.784 136.016V131.553C133.784 128.791 131.546 126.553 128.784 126.553Z" fill="white"></path>
</g>
<path d="M130.154 146.21C130.164 146.285 130.168 146.362 130.168 146.439V154.575C130.168 160.067 125.717 164.518 120.225 164.518H119.321C113.829 164.518 109.378 160.067 109.378 154.575V146.439C109.378 146.362 109.383 146.285 109.392 146.21C109.382 146.137 109.378 146.062 109.378 145.988C109.378 144.24 112.008 142.824 115.253 142.824C117.071 142.824 118.695 143.268 119.773 143.966C120.851 143.268 122.475 142.824 124.293 142.824C127.538 142.824 130.168 144.24 130.168 145.988C130.168 146.062 130.164 146.137 130.154 146.21Z" fill="#FF4F6D"></path>
<path d="M108.474 121.129C108.474 125.123 113.33 128.361 119.321 128.361C125.312 128.361 130.168 125.123 130.168 121.129" fill="black" fill-opacity="0.16"></path>
<path d="M83.3079 105.262C84.9771 101.828 88.7355 99.4342 93.1044 99.4342C97.4579 99.4342 101.205 101.811 102.883 105.226C103.382 106.24 102.672 107.07 101.957 106.455C99.7411 104.55 96.5946 103.361 93.1044 103.361C89.7233 103.361 86.6648 104.477 84.4626 106.279C83.6574 106.937 82.8197 106.267 83.3079 105.262Z" fill="black" fill-opacity="0.6"></path>
<path d="M135.737 105.262C137.406 101.828 141.164 99.4342 145.533 99.4342C149.887 99.4342 153.634 101.811 155.312 105.226C155.81 106.24 155.101 107.07 154.386 106.455C152.17 104.55 149.024 103.361 145.533 103.361C142.152 103.361 139.094 104.477 136.892 106.279C136.086 106.937 135.249 106.267 135.737 105.262Z" fill="black" fill-opacity="0.6"></path>
<path d="M82.8289 93.2499C86.3678 88.2703 96.0696 85.478 104.427 87.5303C105.396 87.7684 106.375 87.1754 106.614 86.2057C106.852 85.236 106.259 84.2569 105.289 84.0188C95.5837 81.6355 84.3492 84.8689 79.8816 91.1553C79.3032 91.9692 79.4941 93.0979 80.308 93.6763C81.1218 94.2547 82.2505 94.0638 82.8289 93.2499Z" fill="black" fill-opacity="0.6"></path>
<path d="M155.813 93.2499C152.275 88.2703 142.573 85.478 134.216 87.5303C133.246 87.7684 132.267 87.1754 132.029 86.2057C131.791 85.236 132.384 84.2569 133.353 84.0188C143.059 81.6355 154.293 84.8689 158.761 91.1553C159.339 91.9692 159.148 93.0979 158.334 93.6763C157.521 94.2547 156.392 94.0638 155.813 93.2499Z" fill="black" fill-opacity="0.6"></path>
<mask id="mask5" mask-type="alpha" maskUnits="userSpaceOnUse" x="0" y="3" width="239" height="254">
<path d="M238.642 3.61578H0V256.721H238.642V3.61578Z" fill="white"></path>
</mask>
<g mask="url(#mask5)">
<path d="M94.9007 28.7133C102.158 27.685 110.097 27.1184 118.417 27.1184C127.78 27.1184 136.661 27.836 144.631 29.1217C164.927 38.6435 178.982 59.262 178.982 83.1631V98.5701C168.552 98.2342 156.23 85.662 149.558 67.6146C140.394 69.4549 129.759 70.5079 118.417 70.5079C107.605 70.5079 97.4349 69.5509 88.5695 67.8672C81.9662 85.5379 69.9502 97.8991 59.6605 98.55V83.1631C59.6605 58.9143 74.1272 38.0444 94.9007 28.7133Z" fill="black" fill-opacity="0.16"></path>
<path d="M65.7393 93.3043C62.1392 95.0691 59.6605 98.7701 59.6605 103.05V114.801C59.6605 120.242 63.6658 124.747 68.8885 125.529C70.4643 143.831 81.7794 159.351 97.6263 166.879V183.501H94.0105C92.5766 183.501 91.1536 183.548 89.7427 183.639C85.2984 181.368 81.1496 178.6 77.3693 175.41C73.4741 176.558 69.3511 177.174 65.0842 177.174C41.1209 177.174 21.6947 157.748 21.6947 133.784C21.6947 120.759 27.4339 109.075 36.5214 101.121C31.7444 94.5584 28.9263 86.478 28.9263 77.7394C28.9263 57.9978 43.3092 41.6155 62.1679 38.4996C67.813 23.4033 82.3685 12.6552 99.4342 12.6552C106.679 12.6552 113.471 14.5921 119.321 17.9763C125.171 14.5921 131.963 12.6552 139.208 12.6552C156.274 12.6552 170.829 23.4033 176.474 38.4996C195.333 41.6155 209.716 57.9978 209.716 77.7394C209.716 86.478 206.898 94.5584 202.121 101.121C211.208 109.075 216.947 120.759 216.947 133.784C216.947 157.748 197.521 177.174 173.558 177.174C169.291 177.174 165.168 176.558 161.273 175.41C157.493 178.6 153.344 181.368 148.899 183.639C147.489 183.548 146.065 183.501 144.632 183.501H141.016V166.879C156.863 159.351 168.178 143.831 169.754 125.529C174.976 124.747 178.982 120.242 178.982 114.801V103.05C178.982 99.2339 177.011 95.8781 174.032 93.9445C173.061 93.5896 172.085 93.1449 171.108 92.6152C170.727 92.507 170.338 92.4191 169.942 92.3526V91.9432C162.095 87.1496 154.362 76.9935 149.558 63.9988C140.394 65.8391 129.759 66.8921 118.417 66.8921C107.605 66.8921 97.4349 65.9351 88.5695 64.2514C83.8453 76.8935 76.3508 86.818 68.7 91.681V92.3526C67.7759 92.5076 66.8915 92.7795 66.0623 93.1525C65.9546 93.2041 65.8469 93.2547 65.7393 93.3043Z" fill="#314756"></path>
<path d="M65.7393 93.3043C62.1392 95.0691 59.6605 98.7701 59.6605 103.05V114.801C59.6605 120.242 63.6658 124.747 68.8885 125.529C70.4643 143.831 81.7794 159.351 97.6263 166.879V183.501H94.0105C92.5766 183.501 91.1536 183.548 89.7427 183.639C85.2984 181.368 81.1496 178.6 77.3693 175.41C73.4741 176.558 69.3511 177.174 65.0842 177.174C41.1209 177.174 21.6947 157.748 21.6947 133.784C21.6947 120.759 27.4339 109.075 36.5214 101.121C31.7444 94.5584 28.9263 86.478 28.9263 77.7394C28.9263 57.9978 43.3092 41.6155 62.1679 38.4996C67.813 23.4033 82.3685 12.6552 99.4342 12.6552C106.679 12.6552 113.471 14.5921 119.321 17.9763C125.171 14.5921 131.963 12.6552 139.208 12.6552C156.274 12.6552 170.829 23.4033 176.474 38.4996C195.333 41.6155 209.716 57.9978 209.716 77.7394C209.716 86.478 206.898 94.5584 202.121 101.121C211.208 109.075 216.947 120.759 216.947 133.784C216.947 157.748 197.521 177.174 173.558 177.174C169.291 177.174 165.168 176.558 161.273 175.41C157.493 178.6 153.344 181.368 148.899 183.639C147.489 183.548 146.065 183.501 144.632 183.501H141.016V166.879C156.863 159.351 168.178 143.831 169.754 125.529C174.976 124.747 178.982 120.242 178.982 114.801V103.05C178.982 99.2339 177.011 95.8781 174.032 93.9445C173.061 93.5896 172.085 93.1449 171.108 92.6152C170.727 92.507 170.338 92.4191 169.942 92.3526V91.9432C162.095 87.1496 154.362 76.9935 149.558 63.9988C140.394 65.8391 129.759 66.8921 118.417 66.8921C107.605 66.8921 97.4349 65.9351 88.5695 64.2514C83.8453 76.8935 76.3508 86.818 68.7 91.681V92.3526C67.7759 92.5076 66.8915 92.7795 66.0623 93.1525C65.9546 93.2041 65.8469 93.2547 65.7393 93.3043Z" fill="#D8D8D8"></path>
<mask id="mask6" mask-type="alpha" maskUnits="userSpaceOnUse" x="21" y="12" width="196" height="172">
<path d="M65.7393 93.3043C62.1392 95.0691 59.6605 98.7701 59.6605 103.05V114.801C59.6605 120.242 63.6658 124.747 68.8885 125.529C70.4643 143.831 81.7794 159.351 97.6263 166.879V183.501H94.0105C92.5766 183.501 91.1536 183.548 89.7427 183.639C85.2984 181.368 81.1496 178.6 77.3693 175.41C73.4741 176.558 69.3511 177.174 65.0842 177.174C41.1209 177.174 21.6947 157.748 21.6947 133.784C21.6947 120.759 27.4339 109.075 36.5214 101.121C31.7444 94.5584 28.9263 86.478 28.9263 77.7394C28.9263 57.9978 43.3092 41.6155 62.1679 38.4996C67.813 23.4033 82.3685 12.6552 99.4342 12.6552C106.679 12.6552 113.471 14.5921 119.321 17.9763C125.171 14.5921 131.963 12.6552 139.208 12.6552C156.274 12.6552 170.829 23.4033 176.474 38.4996C195.333 41.6155 209.716 57.9978 209.716 77.7394C209.716 86.478 206.898 94.5584 202.121 101.121C211.208 109.075 216.947 120.759 216.947 133.784C216.947 157.748 197.521 177.174 173.558 177.174C169.291 177.174 165.168 176.558 161.273 175.41C157.493 178.6 153.344 181.368 148.899 183.639C147.489 183.548 146.065 183.501 144.632 183.501H141.016V166.879C156.863 159.351 168.178 143.831 169.754 125.529C174.976 124.747 178.982 120.242 178.982 114.801V103.05C178.982 99.2339 177.011 95.8781 174.032 93.9445C173.061 93.5896 172.085 93.1449 171.108 92.6152C170.727 92.507 170.338 92.4191 169.942 92.3526V91.9432C162.095 87.1496 154.362 76.9935 149.558 63.9988C140.394 65.8391 129.759 66.8921 118.417 66.8921C107.605 66.8921 97.4349 65.9351 88.5695 64.2514C83.8453 76.8935 76.3508 86.818 68.7 91.681V92.3526C67.7759 92.5076 66.8915 92.7795 66.0623 93.1525C65.9546 93.2041 65.8469 93.2547 65.7393 93.3043Z" fill="white"></path>
</mask>
<g mask="url(#mask6)">
<path d="M260.337 12.6552H21.6947V265.76H260.337V12.6552Z" fill="#BE1622"></path>
</g>
</g>
<path d="M58.2973 92.6169C54.1972 94.6323 51.3743 98.8585 51.3743 103.746V117.165C51.3743 123.378 55.9359 128.522 61.884 129.415C63.6787 150.316 76.5653 168.038 94.6132 176.634C95.9858 184.472 83.6319 188.39 57.5513 188.39C30.2597 188.39 8.13553 166.207 8.13553 138.842C8.13553 123.969 14.6718 110.626 25.0215 101.543C19.581 94.049 16.3715 84.8218 16.3715 74.8429C16.3715 52.2992 32.752 33.5916 54.23 30.0334C60.6592 12.7944 77.2362 0.520813 96.6721 0.520813C104.923 0.520813 112.658 2.73259 119.321 6.59707C125.984 2.73259 133.719 0.520813 141.97 0.520813C161.406 0.520813 177.983 12.7944 184.412 30.0334C205.89 33.5916 222.271 52.2992 222.271 74.8429C222.271 84.8218 219.061 94.049 213.621 101.543C223.97 110.626 230.507 123.969 230.507 138.842C230.507 166.207 208.382 188.39 181.091 188.39C157.387 188.39 145.033 184.472 144.029 176.634C162.077 168.038 174.963 150.316 176.758 129.415C182.706 128.522 187.268 123.378 187.268 117.165V103.746C187.268 99.3882 185.024 95.556 181.631 93.348C180.525 92.9428 179.413 92.4349 178.3 91.83C177.867 91.7065 177.424 91.606 176.973 91.5301V91.0627C168.036 85.5886 159.229 73.991 153.758 59.1519C143.321 61.2534 131.209 62.4559 118.292 62.4559C105.977 62.4559 94.3951 61.3631 84.2985 59.4404C78.9182 73.8768 70.3827 85.2099 61.6693 90.7633V91.5301C60.6169 91.7072 59.6096 92.0176 58.6653 92.4436C58.5426 92.5026 58.42 92.5603 58.2973 92.6169Z" fill="#BE1622"></path>
<g opacity="0.6">
<path opacity="0.6" d="M98.5303 173.462C98.6557 173.374 98.7914 173.301 98.9346 173.243C99.1277 173.229 99.3216 173.229 99.5147 173.243C99.8491 173.242 100.181 173.191 100.499 173.092C100.739 172.987 101.015 172.987 101.255 173.092C101.554 173.193 101.818 173.294 102.099 173.092C102.38 172.89 102.398 173.092 102.556 172.991C102.899 172.98 103.24 172.941 103.576 172.873C103.857 172.789 103.892 172.873 103.945 173.109C103.997 173.344 103.945 173.428 104.05 173.597H104.156C104.165 173.445 104.165 173.294 104.156 173.142C104.156 172.923 104.156 172.806 104.455 172.789C104.753 172.772 105.333 172.57 105.773 172.789C105.773 172.789 105.896 172.789 105.966 172.789L106.054 173.058C106.177 172.536 106.898 172.503 107.373 173.058V172.974L107.724 173.092C107.788 173.1 107.853 173.1 107.918 173.092C108.41 173.092 108.621 173.311 108.586 173.782V174.001L108.867 173.799L109.219 174.556C109.465 174.39 109.738 174.265 110.027 174.186C110.353 174.205 110.673 174.273 110.976 174.388L110.59 174.792L110.906 174.607C111.135 174.455 111.258 174.506 111.346 174.758C111.381 174.831 111.436 174.895 111.504 174.943L111.697 175.044C112.189 175.381 112.189 175.499 111.697 175.852L111.504 176.054C111.855 176.054 112.066 175.6 112.383 175.852C112.699 176.105 112.875 176.206 112.787 176.475C112.963 176.677 113.121 176.829 113.244 176.997C113.631 177.441 113.961 177.927 114.229 178.445C114.352 178.748 114.58 178.966 114.686 179.269C114.802 179.545 114.943 179.809 115.108 180.061C115.319 180.448 115.529 180.818 115.705 181.205C115.705 181.34 115.705 181.525 115.705 181.693L115.213 181.576C115.142 181.557 115.08 181.515 115.037 181.458C114.791 181.02 114.317 180.902 113.912 180.7L113.596 180.515L113.842 180.279C113.525 180.279 113.121 180.397 112.857 180.279C112.594 180.162 112.189 180.027 112.26 179.572C111.852 179.711 111.403 179.518 111.24 179.135C111.047 178.697 111.644 178.613 111.873 178.243C111.69 178.318 111.513 178.408 111.346 178.512C110.998 178.868 110.421 178.905 110.027 178.596L110.449 177.721C110.01 178.108 109.676 178.764 108.884 178.259L109.377 177.266L109.008 177.822C108.942 177.962 108.865 178.097 108.779 178.226C108.691 178.303 108.59 178.365 108.48 178.411C108.426 178.302 108.379 178.189 108.34 178.074C108.34 178.074 108.34 177.956 108.34 177.872C108.176 178.021 108 178.156 107.812 178.276C107.707 178.276 107.548 178.276 107.425 178.276C107.405 178.165 107.405 178.051 107.425 177.94C107.531 177.653 107.672 177.401 107.795 177.115C107.918 176.829 107.795 176.913 107.9 176.812C107.823 176.897 107.753 176.987 107.689 177.081L107.197 177.94C107.039 178.209 106.88 178.209 106.705 177.94C106.529 177.741 106.365 177.533 106.212 177.317C106.123 177.151 106.08 176.965 106.089 176.778C106.124 176.571 106.183 176.367 106.265 176.172L105.755 176.694L105.544 176.189L104.964 175.903C104.759 175.781 104.541 175.679 104.314 175.6C103.839 175.482 103.822 175.482 103.857 175.027C103.885 174.94 103.885 174.846 103.857 174.758C103.857 174.91 103.699 175.061 103.646 175.213C103.593 175.364 103.488 175.516 103.277 175.431C103.178 175.414 103.092 175.354 103.045 175.269C102.997 175.184 102.992 175.083 103.031 174.994C103.052 174.854 103.052 174.713 103.031 174.573C102.398 175.364 102.363 175.381 102.081 174.994C101.712 175.095 101.695 174.994 101.624 174.708C101.554 174.422 101.624 174.438 101.484 174.236L101.255 174.539C101.209 174.616 101.168 174.694 101.132 174.775C100.569 174.775 100.341 174.539 100.218 174.236C100.04 174.159 99.8583 174.092 99.6729 174.034C99.4444 174.034 99.2159 174.034 98.9873 173.9C98.8237 173.822 98.6702 173.726 98.5303 173.614V173.462Z" fill="#BE1622"></path>
<path opacity="0.6" d="M110.501 183.758V183.295C110.197 183.972 109.489 183.939 108.915 184.187V183.89C108.74 184.045 108.554 184.188 108.359 184.319C108.089 184.484 107.971 184.418 107.886 184.071L107.397 184.187C107.06 184.187 106.975 184.187 107.076 183.857C107.178 183.526 107.195 183.543 107.262 183.328C106.942 183.592 106.925 184.17 106.368 184.055C106.132 184.055 105.879 183.923 105.912 183.592C105.103 183.592 104.833 183.378 105.035 182.717C104.765 183.097 104.512 183.279 104.141 183.015C103.77 182.75 104.141 182.585 104.141 182.305C104.065 182.375 103.98 182.436 103.888 182.486C103.753 182.486 103.534 182.618 103.483 182.486C103.391 182.363 103.354 182.208 103.382 182.057C103.434 181.868 103.508 181.685 103.601 181.512L103.382 181.892C103.213 182.156 103.011 182.206 102.859 181.892C102.521 181.347 101.88 180.984 101.762 180.241C101.743 180.138 101.69 180.045 101.611 179.977C101.339 179.742 101.239 179.37 101.357 179.035C101.054 179.167 100.986 179.035 101.02 178.771C101.092 178.543 100.995 178.297 100.784 178.177C100.683 178.177 100.649 177.946 100.615 177.814C100.581 177.681 100.396 177.104 100.311 176.74C100.298 176.603 100.298 176.465 100.311 176.328C100.008 175.733 99.721 175.172 99.4342 174.676V174.462C99.4342 174.462 99.7716 174.462 99.856 174.462C99.9403 174.462 100.345 175.023 100.581 175.287C100.629 175.356 100.692 175.413 100.767 175.452C101.239 175.601 101.341 175.865 101.071 176.278C101.058 176.338 101.058 176.4 101.071 176.46C101.509 176.03 101.948 176.262 102.387 176.46C102.825 176.658 102.96 176.608 103.247 176.674V176.79L102.825 176.988H103.061C103.333 177 103.603 177.027 103.871 177.071C103.989 177.071 104.074 177.236 104.242 177.384C104.545 177.33 104.852 177.46 105.018 177.715C105.153 177.88 105.406 177.962 105.609 178.094C105.811 178.226 105.879 178.391 105.609 178.606L105.086 179.068L105.17 179.167C105.27 179.081 105.377 179.004 105.491 178.936C105.682 178.818 105.893 178.734 106.115 178.689C106.402 178.689 106.52 178.837 106.452 179.118C106.609 179.105 106.767 179.105 106.925 179.118C107.262 179.118 107.33 179.267 107.228 179.58C107.127 179.894 107.076 179.977 107.009 180.175C106.981 180.277 106.981 180.386 107.009 180.488C107.33 180.224 107.313 179.795 107.498 179.465C108.038 179.58 108.072 179.63 108.038 180.257C108.257 180.125 108.038 179.663 108.46 179.696C108.694 179.752 108.916 179.847 109.118 179.977L110.063 180.076C110.197 180.093 110.329 180.132 110.451 180.191C110.552 180.191 110.586 180.389 110.653 180.505L110.839 180.076C111.075 180.175 111.311 180.257 111.547 180.389C111.783 180.521 111.648 180.554 111.699 180.637C112.087 180.439 112.154 180.439 112.492 180.753L113.555 181.182C113.69 181.182 113.875 181.264 113.96 181.363C114.151 181.581 114.453 181.671 114.736 181.595C114.987 181.557 115.243 181.557 115.495 181.595C115.731 181.595 115.782 181.875 115.579 181.958C115.146 182.131 114.7 182.274 114.246 182.387C114.246 182.387 114.128 182.387 114.044 182.255C113.841 182.701 113.403 182.635 113.015 182.701C112.865 182.732 112.718 182.776 112.576 182.833C112.576 182.833 112.441 182.915 112.357 182.949L110.67 183.427L110.501 183.758ZM106.098 183.361H106.182L106.655 182.354L106.098 183.361ZM109.033 180.488H108.898V181.297H109.033V180.488Z" fill="#BE1622"></path>
<path opacity="0.6" d="M105.5 184.053L106.024 182.95L105.518 184.053H105.5Z" fill="#BE1622"></path>
<path opacity="0.6" d="M108.546 180.347V181.232H108.401V180.347H108.546Z" fill="#BE1622"></path>
</g>
<path fill-rule="evenodd" clip-rule="evenodd" d="M110.926 107.118C110.926 115.888 103.469 123.001 91.0419 123.001H88.556C76.1291 123.001 71.1573 115.886 71.1573 107.118C71.1573 98.3447 72.3181 91.2341 89.7168 91.2341H92.367C109.766 91.2341 110.926 98.3447 110.926 107.118Z" fill="black" fill-opacity="0.7"></path>
<g style="mix-blend-mode:screen">
<path style="mix-blend-mode:screen" fill-rule="evenodd" clip-rule="evenodd" d="M110.926 107.118C110.926 115.888 103.469 123.001 91.0419 123.001H88.556C76.1291 123.001 71.1573 115.886 71.1573 107.118C71.1573 98.3447 72.3181 91.2341 89.7168 91.2341H92.367C109.766 91.2341 110.926 98.3447 110.926 107.118Z" fill="url(#paint0_linear)"></path>
</g>
<path fill-rule="evenodd" clip-rule="evenodd" d="M166.581 107.118C166.581 115.888 159.126 123.001 146.696 123.001H144.21C131.784 123.001 126.812 115.886 126.812 107.118C126.812 98.3447 127.973 91.2341 145.371 91.2341H148.021C165.417 91.2341 166.581 98.3447 166.581 107.118Z" fill="black" fill-opacity="0.7"></path>
<g style="mix-blend-mode:screen">
<path style="mix-blend-mode:screen" fill-rule="evenodd" clip-rule="evenodd" d="M166.581 107.118C166.581 115.888 159.126 123.001 146.696 123.001H144.21C131.784 123.001 126.812 115.886 126.812 107.118C126.812 98.3447 127.973 91.2341 145.371 91.2341H148.021C165.417 91.2341 166.581 98.3447 166.581 107.118Z" fill="url(#paint1_linear)"></path>
</g>
<path d="M91.0419 125.649H88.556C76.0019 125.649 68.5071 118.721 68.5071 107.118C68.5071 97.7411 70.145 88.5868 89.7168 88.5868H92.367C111.939 88.5868 113.577 97.7411 113.577 107.118C113.577 118.027 104.311 125.649 91.0419 125.649ZM89.7168 93.8787C73.8076 93.8787 73.8076 99.7213 73.8076 107.118C73.8076 113.156 76.365 120.354 88.556 120.354H91.0419C101.19 120.354 108.276 114.911 108.276 107.118C108.276 99.7213 108.276 93.8787 92.367 93.8787H89.7168Z" fill="#252C2F"></path>
<path d="M146.696 125.649H144.21C131.656 125.649 124.162 118.721 124.162 107.118C124.162 97.7411 125.799 88.5868 145.371 88.5868H148.021C167.593 88.5868 169.231 97.7411 169.231 107.118C169.231 118.027 159.966 125.649 146.696 125.649ZM145.371 93.8787C129.462 93.8787 129.462 99.7213 129.462 107.118C129.462 113.156 132.022 120.354 144.21 120.354H146.696C156.844 120.354 163.931 114.911 163.931 107.118C163.931 99.7213 163.931 93.8787 148.021 93.8787H145.371Z" fill="#252C2F"></path>
<path d="M63.2147 93.8814C63.8348 93.2619 70.6193 88.5868 89.7168 88.5868C105.729 88.5868 109.119 90.2864 114.25 92.8542L114.625 93.0438C114.982 93.1727 116.806 93.8064 118.94 93.8761C120.884 93.7908 122.547 93.2519 123.033 93.0793C128.889 90.1666 134.621 88.5868 148.021 88.5868C167.119 88.5868 173.903 93.2619 174.523 93.8814C175.989 93.8814 177.174 95.0647 177.174 96.5286V99.1759C177.174 100.64 175.989 101.823 174.523 101.823C174.523 101.823 169.223 101.823 169.223 104.47C169.223 107.118 166.573 100.64 166.573 99.1759V96.5975C163.341 95.3325 157.555 93.8814 148.021 93.8814C137.4 93.8814 132.11 94.9037 127.572 96.8165L127.623 96.9416L125.367 97.8523L127.62 98.7637L125.632 103.671L123.175 102.678C122.956 102.589 122.482 102.43 121.826 102.264C119.996 101.803 118.115 101.662 116.451 102.012C115.84 102.14 115.274 102.332 114.754 102.592L112.384 103.776L110.013 99.0411L112.383 97.8567L112.389 97.8538L110.118 96.9363L110.19 96.7575C106.277 94.8926 102.669 93.8814 89.7168 93.8814C80.1836 93.8814 74.398 95.3316 71.1653 96.5966V99.1759C71.1653 100.64 68.5151 107.118 68.5151 104.47C68.5151 101.823 63.2147 101.823 63.2147 101.823C61.7517 101.823 60.5645 100.64 60.5645 99.1759V96.5286C60.5645 95.0647 61.7517 93.8814 63.2147 93.8814Z" fill="#252C2F"></path>
<defs>
<linearGradient id="paint0_linear" x1="91.0419" y1="91.2341" x2="91.0419" y2="123.001" gradientUnits="userSpaceOnUse">
<stop stop-color="white" stop-opacity="0.5"></stop>
<stop offset="0.705058" stop-opacity="0.5"></stop>
</linearGradient>
<linearGradient id="paint1_linear" x1="146.696" y1="91.2341" x2="146.696" y2="123.001" gradientUnits="userSpaceOnUse">
<stop stop-color="white" stop-opacity="0.5"></stop>
<stop offset="0.705058" stop-opacity="0.5"></stop>
</linearGradient>
</defs>
</svg>
